<svg xmlns="http://www.w3.org/2000/svg" width="400" height="400" viewBox="0 0 400 400" role="img" aria-label="Hannah Chen portrait">
  <defs>
    <linearGradient id="skin3" x1="0%" y1="0%" x2="100%" y2="100%">
      <stop offset="0%" stop-color="#ffe5d4" stop-opacity="1"/>
      <stop offset="100%" stop-color="#f4d5c4" stop-opacity="1"/>
    </linearGradient>
    <linearGradient id="hair3" x1="0%" y1="0%" x2="100%" y2="100%">
      <stop offset="0%" stop-color="#1a1a1a" stop-opacity="1"/>
      <stop offset="100%" stop-color="#0a0a0a" stop-opacity="1"/>
    </linearGradient>
  </defs>
  <rect width="400" height="400" fill="#e5f5eb" rx="200"/>
  <!-- Face -->
  <ellipse cx="200" cy="180" rx="90" ry="110" fill="url(#skin3)"/>
  <!-- Hair -->
  <path d="M 110 110 Q 130 70, 170 80 Q 200 85, 230 80 Q 270 70, 290 110 Q 285 130, 280 150 Q 200 190, 120 150 Z" fill="url(#hair3)"/>
  <!-- Eyes -->
  <ellipse cx="175" cy="170" rx="8" ry="12" fill="#1a1a1a"/>
  <ellipse cx="225" cy="170" rx="8" ry="12" fill="#1a1a1a"/>
  <!-- Nose -->
  <ellipse cx="200" cy="195" rx="5" ry="9" fill="#e6c5b4" opacity="0.5"/>
  <!-- Mouth -->
  <path d="M 185 215 Q 200 225, 215 215" stroke="#1a1a1a" stroke-width="3" fill="none" stroke-linecap="round"/>
  <!-- Blouse -->
  <path d="M 140 280 Q 200 300, 260 280 L 260 380 L 140 380 Z" fill="#146745"/>
</svg>

